<svg width="637" height="527" viewBox="0 0 637 527" fill="none" xmlns="http://www.w3.org/2000/svg">
<path d="M541.485 221.177L542.338 208.68L543.975 183.685L545.523 158.686C546.527 142.018 546.481 125.353 547.382 108.68C547.419 107.966 545.5 107.232 545.5 106.676V106.671L539.726 100.656C539.334 100.307 539.345 100.048 538.776 99.9101L529.088 94.1565C528.744 93.9556 527.958 92.5299 527.857 92.5299H527.843L513.835 90.1335C513.743 90.1118 513.649 90.1602 513.549 90.1456C513.385 90.1045 513.214 90.1093 513.036 90.1093H513.028L488.15 87.103C488.027 87.0885 485.268 87.6888 485.268 87.6888H460.802C460.802 87.6888 459.389 87.103 458.468 87.103L436.159 90.165C435.489 90.24 434.883 90.5305 434.405 90.8936L418.273 93.3093C417.215 93.4642 416.342 94.0621 415.899 94.8488L406.282 99.8133C405.513 100.213 404.963 100.876 404.789 101.646L399.636 106.228C398.929 106.755 399.578 107.549 399.578 108.409V108.414C399.578 125.106 400.319 141.798 401.275 158.49L402.191 183.523L403.504 208.557C404.319 221.163 405.032 233.771 405.91 246.378C403.87 247.958 402.422 249.57 401.507 251.124C401.258 251.548 401.109 252.02 401.138 252.492L404.242 305.321C404.185 305.563 404.597 309.431 404.897 310.06C405.513 311.331 406.153 312.166 406.894 312.819C407.644 313.468 408.288 313.938 408.983 314.34C409.678 314.736 410.308 315.063 410.96 315.346C412.265 315.918 413.487 316.341 414.708 316.707C415.93 317.077 417.112 317.382 418.294 317.651C420.654 318.193 422.963 318.6 425.266 318.941C427.564 319.292 429.844 319.561 432.119 319.781C436.665 320.229 441.18 320.517 445.675 320.725C450.173 320.928 454.654 321.008 459.126 321.054C461.36 321.074 463.595 321.081 465.824 321.071C468.055 321.052 470.284 321.02 472.513 320.984C481.417 320.834 490.339 320.478 499.274 319.803C508.204 319.079 517.139 318.128 526.078 315.993C528.318 315.441 530.556 314.809 532.807 313.926C533.932 313.471 535.022 312.919 536.198 312.268C539.6 310.384 541.096 308.487 541.171 307.322L544.793 252.497C544.824 252.018 544.704 251.538 544.452 251.11C543.591 249.65 542.138 247.92 539.7 246.128L540.593 233.677L541.485 221.177ZM525.883 171.44L527.431 146.438L528.899 121.436L529.74 106.371C529.912 104.693 530.092 103.013 530.264 101.333L534.616 103.839C533.797 120.003 533.03 136.17 532.309 152.337L531.231 177.353L530.235 202.375L529.774 214.884L529.357 227.398L528.945 239.912L528.91 240.777C527.92 240.435 526.87 240.101 525.757 239.772C524.332 239.353 522.83 238.956 521.262 238.588C521.38 237.032 521.494 235.476 521.609 233.922L522.501 221.424L523.397 208.929L524.249 196.432L525.883 171.44ZM511.38 168.373L512.931 143.374C513.626 131.791 514.298 120.211 514.948 108.627C515.294 104.688 515.649 100.753 515.989 96.8118L523.714 98.4264L522.596 121.196L521.437 146.208L520.358 171.224L519.374 196.251L518.908 208.76L518.493 221.272L518.075 233.786C518.029 235.146 517.986 236.499 517.943 237.857C514.499 237.153 510.759 236.553 506.727 236.054L507.102 230.857L507.995 218.362L508.891 205.867L509.735 193.37L511.38 168.373ZM486.739 228.071L487.18 215.632L487.618 203.197L488.001 190.761L488.716 165.887L489.329 141.011C489.474 134.894 489.649 128.775 489.812 122.658L490.072 115.755L490.848 93.4545L509.24 95.6137C508.447 111.459 507.695 127.306 506.988 143.153L505.909 168.17L504.925 193.189L504.461 205.7L504.044 218.212L503.626 230.722L503.463 235.676C498.253 235.122 492.599 234.732 486.51 234.502L486.519 234.289L486.739 228.071ZM483.984 93.9532C483.904 99.7189 483.838 105.487 483.769 111.253L483.629 115.6L482.885 140.977L482.218 166.357L481.632 191.741C481.317 205.938 481.063 220.137 480.854 234.335C478.233 234.28 475.538 234.253 472.771 234.253C470.396 234.253 468.101 234.27 465.875 234.309L465.795 229.903L465.558 217.227L465.317 204.551L465.028 191.872L464.385 166.521L463.658 141.171C463.18 125.437 462.662 109.701 462.098 93.9677L483.984 93.9532ZM455.086 93.7281L455.529 116.14L456.093 141.016C456.499 157.602 456.931 174.185 457.44 190.768C457.867 205.349 458.37 219.926 458.914 234.505C453.366 234.715 448.328 235.057 443.758 235.505C443.512 221.359 443.22 207.216 442.871 193.075L442.222 168.027L441.498 142.981L440.7 117.936L439.916 95.391L455.086 93.7281ZM433.455 96.6424L434.262 118.105L435.272 143.146L436.356 168.179L437.521 193.215C438.196 207.46 438.934 221.7 439.718 235.943C435.498 236.444 431.715 237.042 428.322 237.719C427.856 223.847 427.341 209.975 426.774 196.105L425.718 171.055L424.585 146.007L423.378 120.962L422.222 98.3319L433.455 96.6424ZM415.833 101.326L415.893 101.856L416.934 121.204L418.348 146.242L419.839 171.278L421.409 196.309C422.311 210.408 423.263 224.508 424.271 238.608C421.716 239.223 419.424 239.883 417.358 240.58C416.923 227.795 416.442 215.015 415.922 202.232L414.866 177.179L413.73 152.131L412.517 127.086L411.321 103.664L415.833 101.326ZM408.714 208.353L407.644 183.303L406.497 158.255C405.727 141.996 404.909 125.737 404.056 109.481L405.069 108.721L406.068 127.328L407.481 152.363L408.969 177.399L410.537 202.43C411.384 215.675 412.276 228.913 413.218 242.154C412.076 242.64 411.029 243.144 410.065 243.652C409.65 231.886 409.183 220.117 408.714 208.353ZM534.201 309.772C533.342 310.292 532.352 310.677 531.36 311.031C529.362 311.745 527.251 312.265 525.125 312.708C520.865 313.584 516.504 314.141 512.132 314.582C507.763 315.015 503.368 315.315 498.965 315.535C490.161 315.976 481.337 316.109 472.513 316.097C463.689 316.082 454.865 315.923 446.067 315.443C441.67 315.201 437.278 314.882 432.914 314.415C428.557 313.94 424.205 313.34 419.99 312.369C417.893 311.875 415.813 311.292 413.916 310.464C412.977 310.048 412.076 309.564 411.381 308.966C411.132 308.753 410.617 308.334 410.849 307.884C411.458 307.044 414.912 304.517 424.302 302.188C432.474 300.162 447.518 297.747 472.765 297.747C498.001 297.747 513.022 300.066 521.182 302.007C530.573 304.246 534.055 306.695 534.684 307.518C534.902 307.927 536.066 308.639 534.201 309.772ZM536.836 274.122L536.796 274.759L535.071 300.818C532.536 299.548 529.257 298.354 525.325 297.306C512.925 293.992 494.75 292.24 472.768 292.24C445.02 292.24 428.854 295.103 420.179 297.505C417.192 298.332 414.583 299.24 412.394 300.194C411.724 300.487 411.089 300.787 410.5 301.085L409.747 288.316L407.661 252.998C410.823 248.585 423.346 239.765 472.768 239.765C494.73 239.765 511.838 241.52 523.617 244.979C533.068 247.753 536.779 250.984 538.229 252.976L536.836 274.122ZM532.315 242.074L532.461 240.043L533.36 227.546L534.252 215.051L535.099 202.556L536.736 177.561L538.281 152.562C539.165 137.932 540.006 123.302 540.81 108.673L541.869 109.607C541.042 125.892 540.272 142.175 539.545 158.463L538.467 183.48L537.483 208.499L537.013 221.008L536.598 233.522L536.252 243.957C535.091 243.321 533.78 242.689 532.315 242.074Z" fill="white"/>
<path d="M221.799 222.203L222.632 209.618L224.23 184.448L225.741 159.273C226.722 142.488 226.677 125.706 227.557 108.916C227.593 108.197 225.719 107.458 225.719 106.898V106.893L220.081 100.836C219.698 100.485 219.709 100.224 219.153 100.085L209.694 94.2909C209.358 94.0886 208.59 92.6529 208.492 92.6529H208.478L194.8 90.2397C194.71 90.2178 194.618 90.2665 194.52 90.2519C194.361 90.2105 194.194 90.2153 194.02 90.2153H194.012L169.72 87.1879C169.6 87.1733 166.907 87.7778 166.907 87.7778H143.017C143.017 87.7778 141.637 87.1879 140.737 87.1879L118.954 90.2714C118.3 90.347 117.708 90.6395 117.241 91.0051L101.49 93.4377C100.456 93.5937 99.6039 94.1958 99.1708 94.988L89.7809 99.9874C89.0293 100.39 88.4929 101.057 88.3225 101.833L83.2909 106.447C82.6008 106.978 83.235 107.778 83.235 108.643V108.648C83.235 125.457 83.9586 142.266 84.8917 159.076L85.7857 184.285L87.0681 209.493C87.8643 222.188 88.56 234.885 89.4177 247.58C87.4257 249.172 86.012 250.795 85.118 252.36C84.875 252.786 84.7297 253.262 84.7576 253.737L87.7889 306.936C87.733 307.18 88.1353 311.075 88.4287 311.709C89.0293 312.989 89.6552 313.83 90.3787 314.488C91.1107 315.141 91.7393 315.614 92.4182 316.018C93.0971 316.418 93.7118 316.747 94.3487 317.032C95.6227 317.608 96.8157 318.034 98.0086 318.402C99.2016 318.775 100.355 319.082 101.509 319.353C103.814 319.899 106.069 320.308 108.318 320.652C110.561 321.006 112.788 321.276 115.009 321.498C119.448 321.949 123.857 322.239 128.246 322.449C132.638 322.653 137.013 322.734 141.38 322.78C143.562 322.8 145.743 322.807 147.92 322.797C150.099 322.778 152.275 322.746 154.452 322.709C163.146 322.558 171.857 322.2 180.582 321.52C189.302 320.791 198.027 319.833 206.754 317.683C208.942 317.127 211.127 316.491 213.326 315.602C214.423 315.143 215.488 314.588 216.636 313.932C219.958 312.035 221.419 310.124 221.492 308.952L225.029 253.742C225.059 253.259 224.942 252.777 224.696 252.345C223.855 250.875 222.436 249.133 220.056 247.329L220.927 234.79L221.799 222.203ZM206.564 172.116L208.076 146.939L209.509 121.762L210.331 106.591C210.498 104.901 210.674 103.21 210.842 101.518L215.091 104.041C214.292 120.319 213.543 136.599 212.839 152.879L211.786 178.071L210.814 203.268L210.364 215.865L209.956 228.467L209.554 241.069L209.52 241.939C208.554 241.596 207.528 241.259 206.442 240.928C205.05 240.506 203.584 240.106 202.053 239.736C202.167 238.169 202.279 236.601 202.391 235.036L203.262 222.451L204.137 209.869L204.969 197.284L206.564 172.116ZM192.403 169.028L193.917 143.853C194.596 132.19 195.252 120.528 195.887 108.862C196.225 104.897 196.571 100.933 196.904 96.9648L204.447 98.5907L203.354 121.521L202.223 146.708L201.17 171.899L200.209 197.101L199.753 209.698L199.348 222.298L198.94 234.9C198.896 236.27 198.854 237.632 198.812 239C195.448 238.29 191.796 237.686 187.86 237.184L188.226 231.95L189.098 219.368L189.972 206.785L190.796 194.2L192.403 169.028ZM168.343 229.145L168.773 216.618L169.2 204.097L169.575 191.573L170.273 166.525L170.871 141.474C171.013 135.315 171.184 129.152 171.343 122.993L171.597 116.041L172.354 93.584L190.313 95.7583C189.539 111.714 188.804 127.673 188.114 143.631L187.061 168.823L186.1 194.018L185.647 206.617L185.239 219.217L184.832 231.814L184.672 236.804C179.585 236.245 174.064 235.853 168.119 235.621L168.127 235.407L168.343 229.145ZM165.652 94.0861C165.574 99.8923 165.51 105.701 165.443 111.507L165.306 115.885L164.579 141.44L163.928 166.998L163.356 192.56C163.048 206.856 162.8 221.155 162.596 235.453C160.037 235.397 157.405 235.37 154.703 235.37C152.384 235.37 150.144 235.387 147.97 235.426L147.892 230.99L147.66 218.225L147.425 205.459L147.143 192.692L146.515 167.163L145.805 141.635C145.338 125.791 144.833 109.945 144.282 94.1008L165.652 94.0861ZM137.435 93.8594L137.868 116.429L138.418 141.479C138.815 158.181 139.237 174.881 139.734 191.58C140.15 206.264 140.642 220.943 141.173 235.624C135.756 235.836 130.836 236.18 126.374 236.63C126.134 222.386 125.849 208.143 125.508 193.903L124.874 168.679L124.167 143.458L123.387 118.237L122.622 95.534L137.435 93.8594ZM116.314 96.7942L117.101 118.408L118.088 143.624L119.147 168.833L120.284 194.044C120.943 208.389 121.664 222.729 122.429 237.072C118.308 237.576 114.615 238.178 111.302 238.861C110.846 224.891 110.343 210.922 109.79 196.955L108.759 171.729L107.653 146.505L106.474 121.284L105.345 98.4956L116.314 96.7942ZM99.1066 101.511L99.1652 102.045L100.182 121.528L101.562 146.742L103.018 171.953L104.552 197.16C105.432 211.358 106.362 225.557 107.345 239.755C104.851 240.375 102.613 241.04 100.596 241.742C100.171 228.867 99.7017 215.997 99.1932 203.124L98.1623 177.896L97.0531 152.672L95.8686 127.451L94.7008 103.865L99.1066 101.511ZM92.1556 209.289L91.1107 184.063L89.9904 158.839C89.2389 142.466 88.4399 126.093 87.6073 109.723L88.5963 108.958L89.5713 127.695L90.9515 152.906L92.4043 178.118L93.9353 203.324C94.7622 216.662 95.6339 229.993 96.553 243.326C95.4383 243.816 94.4158 244.323 93.4743 244.835C93.0692 232.986 92.6138 221.135 92.1556 209.289ZM214.686 311.419C213.848 311.943 212.881 312.33 211.912 312.686C209.962 313.405 207.9 313.929 205.824 314.376C201.664 315.258 197.406 315.819 193.137 316.262C188.871 316.698 184.58 317.001 180.28 317.223C171.684 317.666 163.068 317.8 154.452 317.788C145.836 317.773 137.22 317.613 128.629 317.13C124.335 316.886 120.046 316.564 115.786 316.094C111.531 315.616 107.281 315.012 103.166 314.034C101.118 313.537 99.087 312.95 97.2347 312.116C96.3184 311.697 95.4383 311.209 94.7594 310.607C94.5164 310.393 94.0135 309.971 94.2398 309.518C94.8349 308.672 98.207 306.127 107.376 303.782C115.355 301.742 130.045 299.309 154.698 299.309C179.339 299.309 194.006 301.644 201.974 303.599C211.144 305.854 214.544 308.321 215.158 309.149C215.371 309.561 216.508 310.278 214.686 311.419ZM217.259 275.519L217.22 276.16L215.535 302.402C213.06 301.123 209.858 299.921 206.02 298.866C193.911 295.529 176.165 293.764 154.7 293.764C127.606 293.764 111.821 296.647 103.35 299.065C100.434 299.899 97.8857 300.813 95.7484 301.773C95.0947 302.068 94.4745 302.371 93.8989 302.671L93.1642 289.813L91.1275 254.247C94.2146 249.803 106.443 240.921 154.7 240.921C176.146 240.921 192.85 242.688 204.352 246.171C213.58 248.964 217.203 252.218 218.62 254.225L217.259 275.519ZM212.845 243.246L212.987 241.201L213.865 228.616L214.736 216.033L215.563 203.451L217.161 178.281L218.67 153.106C219.533 138.374 220.355 123.641 221.14 108.909L222.173 109.85C221.366 126.249 220.615 142.647 219.905 159.049L218.852 184.241L217.891 209.435L217.432 222.032L217.027 234.634L216.689 245.142C215.555 244.501 214.275 243.865 212.845 243.246Z" fill="white"/>
<path d="M391.363 172.136L392.335 157.419L394.201 127.986L395.965 98.5472C397.11 78.9193 397.057 59.2943 398.085 39.6608C398.127 38.8199 395.939 37.9562 395.939 37.3007V37.295L389.358 30.2117C388.911 29.8013 388.924 29.4963 388.275 29.3338L377.233 22.5584C376.841 22.3218 375.944 20.6429 375.83 20.6429H375.814L359.847 17.821C359.743 17.7954 359.635 17.8524 359.521 17.8353C359.335 17.7868 359.139 17.7925 358.937 17.7925H358.927L330.571 14.2523C330.431 14.2352 327.287 14.9421 327.287 14.9421H299.4C299.4 14.9421 297.789 14.2523 296.739 14.2523L271.311 17.8581C270.548 17.9464 269.857 18.2885 269.312 18.716L250.925 21.5607C249.719 21.7432 248.724 22.4472 248.219 23.3736L237.258 29.2198C236.38 29.6901 235.754 30.4711 235.555 31.3775L229.682 36.7733C228.876 37.3947 229.617 38.3297 229.617 39.3415V39.3472C229.617 59.0036 230.461 78.66 231.551 98.3163L232.594 127.795L234.091 157.274C235.021 172.119 235.833 186.967 236.834 201.811C234.508 203.673 232.858 205.571 231.815 207.401C231.531 207.9 231.361 208.456 231.394 209.012L234.932 271.222C234.867 271.507 235.337 276.062 235.679 276.803C236.38 278.299 237.111 279.283 237.956 280.052C238.81 280.816 239.544 281.369 240.336 281.842C241.129 282.31 241.846 282.694 242.59 283.028C244.077 283.701 245.469 284.199 246.862 284.63C248.255 285.066 249.601 285.425 250.948 285.741C253.639 286.38 256.271 286.859 258.896 287.261C261.515 287.674 264.114 287.99 266.707 288.25C271.889 288.777 277.035 289.116 282.158 289.362C287.285 289.601 292.392 289.695 297.489 289.749C300.036 289.772 302.583 289.781 305.124 289.769C307.667 289.746 310.208 289.709 312.748 289.666C322.897 289.49 333.066 289.071 343.251 288.276C353.429 287.423 363.614 286.303 373.802 283.789C376.355 283.139 378.906 282.395 381.472 281.355C382.754 280.819 383.996 280.169 385.337 279.402C389.214 277.185 390.92 274.95 391.005 273.579L395.133 209.017C395.169 208.453 395.032 207.889 394.745 207.384C393.764 205.665 392.107 203.627 389.328 201.518L390.346 186.855L391.363 172.136ZM373.58 113.566L375.344 84.1242L377.017 54.6824L377.976 36.9415C378.172 34.9662 378.377 32.988 378.573 31.0098L383.533 33.96C382.6 52.995 381.726 72.0328 380.905 91.0706L379.675 120.529L378.54 149.994L378.015 164.725L377.539 179.461L377.069 194.198L377.03 195.216C375.902 194.814 374.705 194.42 373.436 194.033C371.812 193.54 370.1 193.072 368.313 192.639C368.447 190.806 368.577 188.973 368.708 187.143L369.725 172.427L370.746 157.713L371.718 142.996L373.58 113.566ZM357.049 109.954L358.816 80.5156C359.609 66.8764 360.375 53.2401 361.116 39.5981C361.51 34.9605 361.915 30.3257 362.303 25.6853L371.108 27.5865L369.833 54.4002L368.512 83.8534L367.283 113.312L366.161 142.783L365.629 157.513L365.156 172.247L364.68 186.984C364.628 188.586 364.579 190.179 364.53 191.778C360.604 190.949 356.341 190.242 351.746 189.655L352.173 183.535L353.191 168.821L354.212 154.107L355.174 139.391L357.049 109.954ZM328.963 180.254L329.465 165.606L329.964 150.963L330.401 136.318L331.217 107.027L331.915 77.7336C332.081 70.5306 332.28 63.3248 332.466 56.1218L332.763 47.9925L333.646 21.7318L354.609 24.2743C353.706 42.933 352.848 61.5946 352.043 80.2562L350.813 109.715L349.692 139.177L349.163 153.911L348.687 168.644L348.211 183.375L348.025 189.21C342.086 188.557 335.642 188.098 328.702 187.827L328.712 187.577L328.963 180.254ZM325.823 22.319C325.731 29.1086 325.656 35.9011 325.578 42.6908L325.418 47.8101L324.57 77.6937L323.81 107.58L323.142 137.472C322.783 154.19 322.493 170.91 322.255 187.631C319.268 187.565 316.196 187.534 313.042 187.534C310.335 187.534 307.72 187.554 305.182 187.599L305.091 182.412L304.82 167.484L304.546 152.557L304.217 137.626L303.483 107.774L302.655 77.9217C302.11 59.3941 301.52 40.8637 300.878 22.3361L325.823 22.319ZM292.884 22.0539L293.39 48.4457L294.032 77.7393C294.495 97.2702 294.988 116.798 295.568 136.326C296.054 153.497 296.628 170.662 297.248 187.83C290.924 188.078 285.181 188.48 279.973 189.007C279.693 172.35 279.36 155.695 278.962 139.043L278.222 109.547L277.397 80.0538L276.487 50.5607L275.593 24.0121L292.884 22.0539ZM268.23 25.4857L269.149 50.7602L270.3 80.2476L271.536 109.726L272.864 139.208C273.633 155.983 274.475 172.752 275.368 189.523C270.558 190.113 266.247 190.817 262.379 191.616C261.847 175.28 261.26 158.944 260.615 142.612L259.411 113.113L258.12 83.6168L256.743 54.1237L255.426 27.4753L268.23 25.4857ZM248.144 31.0013L248.212 31.6255L249.399 54.4088L251.01 83.8933L252.709 113.375L254.5 142.851C255.527 159.455 256.613 176.058 257.761 192.662C254.849 193.386 252.236 194.164 249.882 194.985C249.386 179.929 248.838 164.879 248.245 149.826L247.041 120.324L245.747 90.8283L244.364 61.3352L243.001 33.7548L248.144 31.0013ZM240.03 157.035L238.81 127.536L237.502 98.0398C236.625 78.8937 235.692 59.7476 234.72 40.6043L235.875 39.7092L237.013 61.6203L238.624 91.102L240.32 120.584L242.107 150.06C243.072 165.657 244.09 181.246 245.163 196.838C243.862 197.41 242.668 198.003 241.569 198.602C241.096 184.746 240.565 170.887 240.03 157.035ZM383.06 276.463C382.082 277.076 380.954 277.529 379.822 277.946C377.546 278.787 375.139 279.399 372.716 279.921C367.86 280.953 362.89 281.608 357.907 282.127C352.927 282.637 347.917 282.991 342.898 283.25C332.864 283.769 322.806 283.926 312.748 283.912C302.691 283.894 292.633 283.706 282.605 283.142C277.592 282.857 272.587 282.481 267.613 281.931C262.646 281.372 257.686 280.665 252.882 279.522C250.492 278.94 248.121 278.254 245.959 277.279C244.889 276.788 243.862 276.218 243.069 275.514C242.785 275.263 242.198 274.77 242.463 274.24C243.157 273.251 247.094 270.275 257.797 267.533C267.111 265.147 284.258 262.303 313.035 262.303C341.799 262.303 358.921 265.033 368.222 267.319C378.925 269.956 382.894 272.841 383.611 273.81C383.859 274.291 385.187 275.129 383.06 276.463ZM386.064 234.483L386.018 235.232L384.052 265.92C381.162 264.423 377.425 263.018 372.944 261.784C358.81 257.882 338.095 255.818 313.039 255.818C281.411 255.818 262.985 259.19 253.097 262.018C249.693 262.992 246.719 264.061 244.224 265.184C243.461 265.529 242.737 265.883 242.065 266.233L241.207 251.198L238.83 209.607C242.433 204.411 256.708 194.024 313.039 194.024C338.072 194.024 357.571 196.091 370.997 200.164C381.769 203.431 385.999 207.236 387.652 209.582L386.064 234.483ZM380.911 196.743L381.077 194.352L382.102 179.635L383.119 164.922L384.084 150.208L385.95 120.775L387.711 91.3357C388.719 74.1079 389.677 56.8801 390.594 39.6522L391.8 40.7525C390.858 59.93 389.981 79.1046 389.152 98.285L387.923 127.744L386.801 157.206L386.266 171.936L385.793 186.673L385.399 198.961C384.075 198.211 382.581 197.467 380.911 196.743Z" fill="white"/>
<path d="M385.038 517.077L384.382 517.003C340.449 512.074 330.262 497.429 326.912 492.615C325.881 491.129 324.86 489.244 323.782 487.246C320.417 481.019 316.601 473.959 310.284 473.959C303.956 473.959 300.14 481.019 296.777 487.246C295.698 489.244 294.678 491.129 293.647 492.615C290.301 497.429 280.11 512.074 236.175 517.003L235.522 517.077L235.075 516.588C233.452 514.831 233.922 511.901 234.372 509.073C234.693 507.06 235.06 504.783 234.427 503.844C233.796 502.92 231.556 502.417 229.576 501.973C226.771 501.343 223.864 500.689 222.822 498.522C221.797 496.372 223.098 493.728 224.356 491.165C225.257 489.325 226.277 487.244 225.947 486.151C225.622 485.092 223.637 483.962 221.887 482.965C219.378 481.526 216.783 480.041 216.428 477.643C216.083 475.318 218.096 473.176 220.041 471.101C221.447 469.596 223.051 467.899 223.051 466.737C223.051 465.567 221.447 463.865 220.041 462.361C218.094 460.288 216.083 458.149 216.428 455.821C216.783 453.427 219.378 451.941 221.887 450.51C223.635 449.506 225.62 448.372 225.941 447.32C226.277 446.225 225.257 444.143 224.356 442.301C223.1 439.739 221.797 437.088 222.822 434.949C223.864 432.78 226.767 432.125 229.576 431.494C231.554 431.047 233.794 430.546 234.427 429.618C235.06 428.687 234.693 426.403 234.372 424.392C233.922 421.562 233.452 418.637 235.075 416.875L235.522 416.389L236.175 416.466C280.11 421.397 290.303 436.04 293.647 440.851C294.678 442.336 295.699 444.225 296.777 446.22C300.142 452.448 303.956 459.511 310.284 459.511C316.601 459.511 320.417 452.448 323.782 446.22C324.86 444.225 325.881 442.336 326.912 440.851C330.262 436.04 340.449 421.397 384.382 416.466L385.038 416.389L385.485 416.875C387.103 418.635 386.637 421.559 386.187 424.39C385.866 426.403 385.5 428.687 386.136 429.62C386.761 430.546 389.004 431.047 390.986 431.494C393.796 432.125 396.693 432.78 397.737 434.944C398.761 437.088 397.459 439.739 396.203 442.301C395.304 444.141 394.278 446.225 394.613 447.32C394.939 448.374 396.917 449.506 398.669 450.51C401.177 451.941 403.774 453.427 404.127 455.821C404.477 458.149 402.464 460.29 400.52 462.361C399.108 463.865 397.508 465.567 397.508 466.737C397.508 467.899 399.11 469.596 400.52 471.101C402.464 473.174 404.475 475.314 404.127 477.643C403.774 480.037 401.177 481.526 398.669 482.965C396.915 483.962 394.939 485.092 394.613 486.151C394.28 487.244 395.304 489.323 396.203 491.165C397.459 493.728 398.761 496.372 397.737 498.522C396.693 500.689 393.796 501.343 390.986 501.973C389.004 502.417 386.761 502.92 386.136 503.844C385.5 504.783 385.866 507.064 386.187 509.073C386.637 511.901 387.103 514.831 385.485 516.588L385.038 517.077ZM236.71 419.149C236.351 420.229 236.667 422.201 236.951 423.979C237.369 426.587 237.801 429.289 236.584 431.083C235.379 432.863 232.718 433.458 230.145 434.04C228.05 434.51 225.676 435.043 225.184 436.072C224.704 437.067 225.764 439.236 226.703 441.15C227.868 443.536 229.077 445.996 228.437 448.077C227.811 450.12 225.464 451.466 223.188 452.771C221.31 453.845 219.183 455.062 219.014 456.202C218.854 457.278 220.567 459.107 221.941 460.57C223.772 462.517 225.663 464.534 225.663 466.731C225.663 468.928 223.77 470.941 221.941 472.884C220.567 474.355 218.852 476.178 219.014 477.252C219.181 478.396 221.31 479.615 223.188 480.681C225.464 481.99 227.813 483.336 228.444 485.379C229.079 487.458 227.875 489.924 226.703 492.307C225.764 494.222 224.704 496.385 225.184 497.39C225.676 498.413 228.05 498.948 230.145 499.414C232.718 499.998 235.381 500.591 236.584 502.37C237.799 504.163 237.367 506.867 236.951 509.481C236.667 511.252 236.351 513.233 236.71 514.299C278.763 509.421 288.338 495.657 291.499 491.112C292.449 489.751 293.435 487.922 294.477 485.995C298.003 479.462 302.396 471.332 310.284 471.332C318.16 471.332 322.55 479.462 326.082 485.995C327.121 487.92 328.114 489.751 329.06 491.112C332.219 495.657 341.79 509.421 383.849 514.299C384.204 513.233 383.892 511.252 383.609 509.481C383.186 506.865 382.758 504.163 383.975 502.37C385.184 500.591 387.845 499.996 390.414 499.414C392.506 498.948 394.887 498.413 395.381 497.39C395.857 496.385 394.795 494.22 393.856 492.307C392.692 489.922 391.478 487.458 392.119 485.379C392.742 483.336 395.097 481.99 397.375 480.681C399.249 479.615 401.374 478.396 401.549 477.252C401.705 476.178 399.992 474.351 398.616 472.884C396.787 470.941 394.898 468.928 394.898 466.731C394.898 464.534 396.789 462.517 398.616 460.57C399.991 459.107 401.705 457.278 401.549 456.2C401.374 455.062 399.249 453.845 397.375 452.771C395.097 451.466 392.742 450.12 392.119 448.077C391.478 445.996 392.692 443.534 393.856 441.15C394.795 439.234 395.856 437.067 395.381 436.072C394.887 435.043 392.507 434.51 390.414 434.04C387.845 433.456 385.184 432.863 383.975 431.083C382.758 429.289 383.186 426.585 383.609 423.979C383.892 422.201 384.204 420.229 383.849 419.149C341.792 424.039 332.219 437.8 329.06 442.348C328.114 443.705 327.121 445.529 326.082 447.465C322.55 453.998 318.16 462.123 310.284 462.123C302.396 462.123 298.003 453.998 294.477 447.465C293.435 445.531 292.447 443.705 291.499 442.348C288.338 437.8 278.763 424.039 236.71 419.149Z" fill="white"/>
<path d="M343.748 448.389C343.748 448.389 343.452 448.413 342.883 448.451C342.603 448.473 342.257 448.545 341.856 448.609C341.456 448.693 340.997 448.796 340.49 448.945C338.457 449.514 335.749 450.866 332.713 452.824C331.188 453.795 329.582 454.911 327.892 456.12C326.208 457.322 324.445 458.623 322.565 459.892C320.691 461.177 318.714 462.456 316.575 463.56C314.436 464.623 312.124 465.595 309.554 465.633L308.649 465.578L307.71 465.447C307.099 465.323 306.5 465.178 305.916 464.981C304.748 464.596 303.633 464.104 302.561 463.562C300.431 462.457 298.45 461.177 296.572 459.894C294.695 458.625 292.935 457.325 291.245 456.122C289.561 454.912 287.948 453.799 286.425 452.826C283.394 450.873 280.681 449.516 278.651 448.949C278.144 448.798 277.682 448.695 277.286 448.611C276.88 448.547 276.536 448.475 276.258 448.453C275.693 448.413 275.389 448.391 275.389 448.391C275.389 448.391 275.693 448.398 276.258 448.415C276.542 448.425 276.889 448.481 277.297 448.522C277.701 448.597 278.174 448.674 278.683 448.813C279.717 449.063 280.93 449.516 282.273 450.118C283.627 450.734 285.094 451.529 286.639 452.481C289.743 454.377 293.181 456.847 296.927 459.382C298.798 460.644 300.768 461.894 302.869 462.961C304.976 463.995 307.212 464.9 309.589 464.916C310.718 464.919 311.905 464.677 313.016 464.318C314.137 463.963 315.228 463.494 316.276 462.961C318.372 461.894 320.347 460.644 322.218 459.382C325.958 456.85 329.4 454.377 332.499 452.481C334.052 451.529 335.522 450.738 336.868 450.124C338.216 449.516 339.424 449.063 340.46 448.813C340.969 448.674 341.437 448.597 341.841 448.522C342.252 448.483 342.603 448.425 342.881 448.415C343.452 448.397 343.748 448.389 343.748 448.389Z" fill="white"/>
<path d="M275.2 485.79C275.2 485.79 275.504 485.771 276.069 485.732C276.345 485.709 276.691 485.636 277.096 485.578C277.493 485.49 277.955 485.39 278.462 485.236C280.491 484.671 283.205 483.315 286.236 481.36C287.759 480.384 289.37 479.27 291.056 478.067C292.746 476.855 294.505 475.558 296.391 474.285C298.261 473.008 300.242 471.729 302.379 470.625C304.512 469.558 306.848 468.589 309.383 468.55L310.303 468.601L311.246 468.736C311.856 468.864 312.457 469.004 313.039 469.202C314.204 469.587 315.321 470.075 316.386 470.625C318.526 471.729 320.502 473.01 322.376 474.285C324.255 475.558 326.017 476.855 327.711 478.067C329.393 479.267 331.004 480.384 332.523 481.36C335.562 483.315 338.268 484.673 340.301 485.236C340.808 485.39 341.266 485.49 341.666 485.578C342.068 485.636 342.416 485.709 342.694 485.732C343.263 485.771 343.559 485.79 343.559 485.79C343.559 485.79 343.263 485.786 342.69 485.771C342.41 485.76 342.061 485.706 341.65 485.661C341.244 485.587 340.778 485.507 340.269 485.375C339.233 485.122 338.025 484.671 336.673 484.059C335.327 483.447 333.86 482.658 332.307 481.704C329.211 479.811 325.769 477.336 322.027 474.805C320.156 473.547 318.181 472.289 316.085 471.222C313.99 470.187 311.721 469.282 309.383 469.271C307.044 469.282 304.77 470.187 302.678 471.222C300.578 472.289 298.608 473.539 296.736 474.801C292.992 477.332 289.554 479.807 286.448 481.704C284.902 482.658 283.436 483.447 282.082 484.059C280.741 484.671 279.528 485.122 278.492 485.375C277.983 485.507 277.515 485.587 277.106 485.661C276.7 485.704 276.353 485.76 276.067 485.771C275.502 485.786 275.2 485.79 275.2 485.79Z" fill="white"/>
<path d="M9.016 407.296C5.944 406.4 3.8 405.504 2.584 404.608C1.432 403.712 0.856 402.592 0.856 401.248C0.856 400.224 1.144 398.784 1.72 396.928C2.296 395.072 3.128 392.896 4.216 390.4C5.368 387.84 6.712 385.024 8.248 381.952C9.848 378.88 11.64 375.584 13.624 372.064C11.96 372 10.456 371.968 9.112 371.968C7.832 371.904 6.776 371.872 5.944 371.872C6.328 370.912 7.416 370.08 9.208 369.376C11 368.672 13.368 368.064 16.312 367.552C18.808 363.392 21.464 359.424 24.28 355.648C27.16 351.872 30.04 348.416 32.92 345.28C35.8 342.08 38.68 339.296 41.56 336.928C44.44 334.496 47.192 332.576 49.816 331.168C49.88 330.72 49.912 330.336 49.912 330.016C49.976 329.696 50.008 329.472 50.008 329.344C50.904 329.344 52.088 329.568 53.56 330.016C55.096 330.464 56.568 331.008 57.976 331.648C59.448 332.288 60.728 332.96 61.816 333.664C62.968 334.304 63.608 334.848 63.736 335.296C61.624 339.008 59.544 344.576 57.496 352C55.448 359.36 53.752 368.192 52.408 378.496C52.088 381.056 51.8 383.968 51.544 387.232C51.352 390.496 51.256 394.144 51.256 398.176C51.256 399.584 51.256 401.024 51.256 402.496C51.256 403.968 51.32 405.504 51.448 407.104C51.32 407.168 51.192 407.2 51.064 407.2C50.936 407.2 50.68 407.2 50.296 407.2C49.4 407.2 48.344 407.04 47.128 406.72C45.976 406.464 44.824 406.112 43.672 405.664C42.584 405.28 41.624 404.832 40.792 404.32C40.024 403.808 39.544 403.36 39.352 402.976C39.288 402.144 39.256 401.312 39.256 400.48C39.256 399.712 39.256 398.88 39.256 397.984C39.256 394.016 39.384 389.984 39.64 385.888C39.96 381.792 40.472 377.568 41.176 373.216C40.28 373.152 39.096 373.088 37.624 373.024C36.152 372.896 34.488 372.8 32.632 372.736C30.84 372.672 28.888 372.608 26.776 372.544C24.728 372.416 22.712 372.32 20.728 372.256C19.192 375.136 17.752 378.016 16.408 380.896C15.064 383.712 13.912 386.56 12.952 389.44C11.864 392.512 10.968 395.584 10.264 398.656C9.624 401.728 9.208 404.608 9.016 407.296ZM46.072 349.6C46.328 348.704 46.616 347.488 46.936 345.952C47.32 344.352 47.672 342.688 47.992 340.96C46.392 341.536 44.6 342.592 42.616 344.128C40.696 345.664 38.68 347.584 36.568 349.888C34.52 352.128 32.408 354.688 30.232 357.568C28.12 360.384 26.072 363.392 24.088 366.592C29.464 366.144 35.576 365.856 42.424 365.728C42.936 363.04 43.48 360.384 44.056 357.76C44.696 355.072 45.368 352.352 46.072 349.6ZM78.8328 353.44C80.4968 353.952 82.0648 355.104 83.5368 356.896C85.0088 358.624 86.0968 360.544 86.8008 362.656C86.0968 364.384 85.0088 366.464 83.5368 368.896C82.0648 371.328 80.5928 373.824 79.1208 376.384C77.6488 378.88 76.3048 381.28 75.0888 383.584C73.9368 385.824 73.2648 387.68 73.0728 389.152C74.0968 388.064 75.2168 386.816 76.4328 385.408C77.7128 383.936 78.9288 382.496 80.0808 381.088C81.2968 379.616 82.4168 378.304 83.4408 377.152C84.4648 375.936 85.2648 375.04 85.8408 374.464C87.0568 373.184 88.4968 371.712 90.1608 370.048C91.8248 368.32 93.5528 366.72 95.3448 365.248C97.2008 363.712 99.0568 362.432 100.913 361.408C102.769 360.32 104.465 359.776 106.001 359.776C107.665 359.776 109.041 360.352 110.129 361.504C111.281 362.592 112.177 363.744 112.817 364.96C112.817 365.088 112.561 365.28 112.049 365.536C111.601 365.728 110.929 366.336 110.033 367.36C109.137 368.512 108.113 370.112 106.961 372.16C105.873 374.144 104.785 376.32 103.697 378.688C102.673 380.992 101.809 383.36 101.105 385.792C100.401 388.224 100.049 390.432 100.049 392.416C100.049 394.016 100.241 395.04 100.625 395.488C101.073 395.936 101.681 396.16 102.449 396.16C103.153 396.16 103.889 396 104.657 395.68C105.425 395.36 106.033 395.2 106.481 395.2C106.737 395.328 106.929 395.616 107.057 396.064C107.249 396.448 107.345 396.8 107.345 397.12C106.833 397.568 106.225 398.016 105.521 398.464C104.817 398.912 104.081 399.328 103.313 399.712C102.545 400.096 101.777 400.416 101.009 400.672C100.305 400.928 99.6648 401.056 99.0888 401.056C97.2328 401.056 95.6968 400.768 94.4808 400.192C93.3288 399.68 92.4008 398.976 91.6968 398.08C91.0568 397.184 90.6088 396.128 90.3528 394.912C90.0968 393.632 89.9688 392.288 89.9688 390.88C89.9688 390.112 90.0328 389.248 90.1608 388.288C90.2888 387.328 90.5448 386.208 90.9288 384.928C91.3128 383.584 91.8568 382.016 92.5608 380.224C93.2648 378.368 94.1608 376.16 95.2488 373.6C95.1208 373.6 94.2568 374.048 92.6568 374.944C91.0568 375.84 89.3288 377.216 87.4728 379.072C84.4648 381.952 81.7448 384.8 79.3127 387.616C76.9448 390.432 74.5128 393.568 72.0168 397.024C70.6088 399.008 69.3608 400.672 68.2728 402.016C67.2488 403.424 66.3528 404.352 65.5848 404.8C64.2408 404.032 63.2488 402.944 62.6088 401.536C61.9688 400.192 61.4888 398.784 61.1688 397.312C61.1688 396.096 61.3288 394.56 61.6488 392.704C62.0328 390.848 62.5128 388.8 63.0888 386.56C63.7288 384.256 64.4968 381.856 65.3928 379.36C66.2888 376.864 67.2808 374.368 68.3688 371.872C70.8008 366.24 73.0088 361.824 74.9928 358.624C77.0408 355.424 78.3208 353.696 78.8328 353.44ZM120.789 363.232C120.469 362.848 120.181 362.048 119.924 360.832C119.669 359.552 119.541 358.464 119.541 357.568C121.205 357.696 122.805 357.824 124.341 357.952C125.877 358.016 127.285 358.08 128.565 358.144C129.525 356.224 130.549 354.336 131.637 352.48C132.789 350.56 133.877 348.832 134.901 347.296C135.989 345.696 136.981 344.352 137.877 343.264C138.837 342.176 139.573 341.472 140.085 341.152C140.725 341.152 141.525 341.28 142.485 341.536C143.509 341.728 144.533 342.016 145.557 342.4C146.581 342.72 147.509 343.072 148.341 343.456C149.173 343.84 149.749 344.224 150.069 344.608C148.149 347.04 146.485 349.312 145.077 351.424C143.733 353.472 142.261 355.84 140.661 358.528C141.941 358.528 143.221 358.496 144.501 358.432C145.845 358.368 147.189 358.272 148.533 358.144C148.853 358.464 149.109 358.88 149.301 359.392C149.493 359.84 149.589 360.32 149.589 360.832C146.453 361.984 142.645 362.624 138.165 362.752C136.565 365.824 135.125 368.896 133.845 371.968C132.629 374.976 131.573 377.888 130.677 380.704C129.845 383.52 129.173 386.176 128.661 388.672C128.213 391.168 127.989 393.408 127.989 395.392C127.989 398.208 129.045 399.776 131.156 400.096C133.076 399.84 134.901 399.36 136.629 398.656C138.357 397.952 139.893 397.056 141.237 395.968C141.621 396.544 141.845 397.024 141.909 397.408C141.525 397.984 140.853 398.656 139.893 399.424C138.997 400.192 138.005 400.928 136.917 401.632C135.829 402.4 134.773 403.04 133.749 403.552C132.725 404.064 131.957 404.352 131.445 404.416C129.845 404.352 128.245 404 126.645 403.36C125.045 402.72 123.573 401.92 122.229 400.96C120.949 400 119.893 398.944 119.061 397.792C118.229 396.576 117.812 395.392 117.812 394.24C117.812 392.704 118.005 390.784 118.389 388.48C118.837 386.112 119.445 383.552 120.213 380.8C120.981 378.048 121.877 375.168 122.901 372.16C123.925 369.152 125.045 366.176 126.261 363.232H120.789ZM160.203 403.36C156.555 402.976 153.643 401.376 151.467 398.56C149.291 395.744 148.203 392.16 148.203 387.808C148.203 385.248 148.587 382.592 149.355 379.84C150.123 377.088 151.211 374.432 152.619 371.872C154.027 369.248 155.691 366.784 157.611 364.48C159.531 362.176 161.611 360.192 163.851 358.528C167.371 355.904 170.667 354.592 173.739 354.592C175.787 355.68 177.803 357.952 179.787 361.408C180.107 361.408 180.395 361.408 180.651 361.408C180.907 361.344 181.195 361.312 181.515 361.312C184.907 361.312 186.603 364.32 186.603 370.336C186.603 374.368 185.931 378.208 184.587 381.856C183.307 385.44 181.483 388.704 179.115 391.648C176.811 394.592 174.027 397.088 170.763 399.136C167.563 401.12 164.043 402.528 160.203 403.36ZM165.099 373.12C164.011 374.592 162.987 376.192 162.027 377.92C161.067 379.648 160.235 381.408 159.531 383.2C158.827 384.928 158.283 386.624 157.899 388.288C157.515 389.888 157.323 391.328 157.323 392.608C157.323 394.144 157.579 395.616 158.091 397.024C158.603 398.432 159.179 399.232 159.819 399.424C162.699 398.784 165.323 397.6 167.691 395.872C170.123 394.08 172.203 391.872 173.931 389.248C175.723 386.624 177.099 383.648 178.059 380.32C179.083 376.992 179.595 373.44 179.595 369.664C179.595 368 179.499 366.688 179.307 365.728C179.115 364.768 178.795 363.936 178.347 363.232C175.531 364.064 173.003 365.408 170.763 367.264C168.587 369.12 166.699 371.072 165.099 373.12ZM206.802 353.44C208.466 353.952 210.034 355.104 211.506 356.896C212.978 358.624 214.066 360.544 214.77 362.656C214.066 364.384 212.978 366.464 211.506 368.896C210.034 371.328 208.562 373.824 207.09 376.384C205.618 378.88 204.274 381.28 203.058 383.584C201.906 385.824 201.234 387.68 201.042 389.152C202.066 388.064 203.186 386.816 204.402 385.408C205.682 383.936 206.898 382.496 208.05 381.088C209.266 379.616 210.386 378.304 211.41 377.152C212.434 375.936 213.234 375.04 213.81 374.464C215.026 373.184 216.466 371.712 218.13 370.048C219.794 368.32 221.522 366.72 223.314 365.248C225.17 363.712 227.026 362.432 228.882 361.408C230.738 360.32 232.434 359.776 233.97 359.776C235.634 359.776 237.01 360.352 238.098 361.504C239.25 362.592 240.146 363.744 240.786 364.96C240.786 365.088 240.53 365.28 240.018 365.536C239.57 365.728 238.898 366.336 238.002 367.36C237.106 368.512 236.082 370.112 234.93 372.16C233.842 374.144 232.754 376.32 231.666 378.688C230.642 380.992 229.778 383.36 229.074 385.792C228.37 388.224 228.018 390.432 228.018 392.416C228.018 394.016 228.21 395.04 228.594 395.488C229.042 395.936 229.65 396.16 230.417 396.16C231.122 396.16 231.858 396 232.625 395.68C233.394 395.36 234.002 395.2 234.45 395.2C234.706 395.328 234.898 395.616 235.026 396.064C235.218 396.448 235.314 396.8 235.314 397.12C234.802 397.568 234.194 398.016 233.49 398.464C232.786 398.912 232.05 399.328 231.281 399.712C230.514 400.096 229.746 400.416 228.978 400.672C228.274 400.928 227.634 401.056 227.058 401.056C225.202 401.056 223.666 400.768 222.45 400.192C221.298 399.68 220.37 398.976 219.666 398.08C219.026 397.184 218.578 396.128 218.322 394.912C218.066 393.632 217.938 392.288 217.938 390.88C217.938 390.112 218.002 389.248 218.13 388.288C218.258 387.328 218.514 386.208 218.898 384.928C219.282 383.584 219.826 382.016 220.53 380.224C221.234 378.368 222.13 376.16 223.218 373.6C223.09 373.6 222.226 374.048 220.626 374.944C219.026 375.84 217.298 377.216 215.442 379.072C212.434 381.952 209.714 384.8 207.281 387.616C204.914 390.432 202.482 393.568 199.986 397.024C198.578 399.008 197.33 400.672 196.242 402.016C195.218 403.424 194.322 404.352 193.554 404.8C192.21 404.032 191.218 402.944 190.578 401.536C189.938 400.192 189.458 398.784 189.138 397.312C189.138 396.096 189.298 394.56 189.618 392.704C190.002 390.848 190.482 388.8 191.058 386.56C191.698 384.256 192.466 381.856 193.362 379.36C194.258 376.864 195.25 374.368 196.338 371.872C198.77 366.24 200.978 361.824 202.962 358.624C205.01 355.424 206.29 353.696 206.802 353.44ZM277.461 360.256C277.205 364.224 276.501 367.648 275.349 370.528C274.197 373.344 272.533 375.84 270.357 378.016C268.245 380.128 265.653 382.048 262.581 383.776C259.509 385.504 255.925 387.168 251.829 388.768C251.829 389.152 251.797 389.568 251.733 390.016C251.733 390.4 251.733 390.816 251.733 391.264C251.733 392.096 251.797 392.96 251.925 393.856C252.053 394.752 252.277 395.584 252.597 396.352C252.917 397.12 253.365 397.76 253.941 398.272C254.517 398.72 255.253 398.944 256.149 398.944C257.877 398.944 259.573 398.56 261.237 397.792C262.901 397.024 264.469 396.096 265.941 395.008C267.477 393.856 268.885 392.64 270.165 391.36C271.509 390.016 272.693 388.8 273.717 387.712C274.357 388.288 274.901 388.832 275.349 389.344C272.469 393.184 269.301 396.384 265.845 398.944C262.453 401.44 259.221 403.04 256.149 403.744C251.733 403.232 248.277 401.632 245.781 398.944C243.349 396.192 242.133 392.896 242.133 389.056C242.133 386.432 242.485 383.776 243.189 381.088C243.957 378.336 244.981 375.712 246.261 373.216C247.605 370.656 249.141 368.256 250.869 366.016C252.661 363.776 254.549 361.824 256.533 360.16C258.581 358.496 260.661 357.184 262.773 356.224C264.949 355.264 267.093 354.784 269.205 354.784C272.149 355.168 274.901 356.992 277.461 360.256ZM270.837 363.424C269.109 363.68 267.317 364.384 265.461 365.536C263.605 366.688 261.845 368.224 260.181 370.144C258.581 372.064 257.109 374.304 255.765 376.864C254.421 379.424 253.365 382.176 252.597 385.12C257.717 382.56 261.973 379.424 265.365 375.712C268.757 371.936 270.581 367.84 270.837 363.424ZM281.81 393.856C281.81 391.04 282.482 387.104 283.826 382.048C285.17 376.928 287.058 370.976 289.49 364.192C293.458 353.376 297.17 344.384 300.626 337.216C304.146 329.984 307.57 324.352 310.898 320.32C311.666 320.448 312.594 320.768 313.682 321.28C314.834 321.792 315.954 322.368 317.042 323.008C318.13 323.584 319.09 324.192 319.922 324.832C320.818 325.472 321.394 325.984 321.65 326.368C316.658 332.256 312.274 338.592 308.498 345.376C304.722 352.16 301.266 359.936 298.13 368.704C295.442 376.256 293.394 383.072 291.986 389.152C290.578 395.168 289.874 400.192 289.874 404.224C289.874 405.312 289.874 405.984 289.874 406.24C289.874 406.496 289.906 406.752 289.97 407.008C289.074 406.88 288.306 406.656 287.666 406.336C287.026 406.016 286.61 405.632 286.418 405.184C286.29 404.864 285.938 404.384 285.362 403.744C284.786 403.168 284.274 402.72 283.826 402.4C283.25 402.016 282.77 401.024 282.386 399.424C282.002 397.76 281.81 395.904 281.81 393.856ZM304.497 393.856C304.497 391.04 305.169 387.104 306.513 382.048C307.857 376.928 309.745 370.976 312.177 364.192C316.145 353.376 319.857 344.384 323.313 337.216C326.833 329.984 330.257 324.352 333.585 320.32C334.353 320.448 335.281 320.768 336.369 321.28C337.521 321.792 338.641 322.368 339.729 323.008C340.817 323.584 341.777 324.192 342.609 324.832C343.505 325.472 344.081 325.984 344.337 326.368C339.345 332.256 334.961 338.592 331.185 345.376C327.409 352.16 323.953 359.936 320.817 368.704C318.129 376.256 316.081 383.072 314.673 389.152C313.265 395.168 312.561 400.192 312.561 404.224C312.561 405.312 312.561 405.984 312.561 406.24C312.561 406.496 312.593 406.752 312.657 407.008C311.761 406.88 310.993 406.656 310.353 406.336C309.713 406.016 309.297 405.632 309.105 405.184C308.977 404.864 308.625 404.384 308.049 403.744C307.473 403.168 306.961 402.72 306.513 402.4C305.937 402.016 305.457 401.024 305.073 399.424C304.689 397.76 304.497 395.904 304.497 393.856ZM327.377 393.568C327.377 392.992 327.409 392.288 327.473 391.456C327.601 390.56 327.793 389.408 328.049 388C328.305 386.528 328.625 384.768 329.009 382.72C329.457 380.672 330.001 378.208 330.641 375.328C330.769 374.688 331.057 373.664 331.505 372.256C331.953 370.848 332.529 369.376 333.233 367.84C334.001 366.24 334.897 364.704 335.921 363.232C337.009 361.76 338.289 360.672 339.761 359.968C340.849 360.224 342.289 360.896 344.081 361.984C345.873 363.008 347.409 364.448 348.689 366.304C347.217 367.968 345.969 369.632 344.945 371.296C343.985 372.96 343.089 374.688 342.257 376.48C341.489 378.272 340.753 380.128 340.049 382.048C339.409 383.968 338.673 385.984 337.841 388.096C337.137 389.888 336.497 391.744 335.921 393.664C335.345 395.52 335.025 397.152 334.961 398.56C334.961 399.712 334.929 400.512 334.865 400.96C334.865 401.472 334.705 401.728 334.385 401.728C334.129 401.728 333.617 401.568 332.849 401.248C332.081 400.928 331.281 400.448 330.449 399.808C329.681 399.104 328.977 398.24 328.337 397.216C327.697 396.192 327.377 394.976 327.377 393.568ZM345.713 351.904C345.713 351.52 345.809 350.944 346.001 350.176C345.681 349.856 345.393 349.376 345.137 348.736C344.945 348.096 344.849 347.52 344.849 347.008C344.849 346.432 344.913 345.664 345.041 344.704C345.233 343.68 345.457 342.592 345.713 341.44C345.969 340.288 346.289 339.104 346.673 337.888C347.057 336.608 347.441 335.456 347.825 334.432C348.593 334.432 349.521 334.656 350.609 335.104C351.761 335.488 352.913 336.032 354.065 336.736C355.217 337.376 356.273 338.112 357.233 338.944C358.193 339.712 358.929 340.448 359.441 341.152C358.737 341.856 357.809 342.848 356.657 344.128C355.505 345.344 354.385 346.656 353.297 348.064C352.209 349.408 351.217 350.688 350.321 351.904C349.425 353.12 348.849 353.984 348.593 354.496C347.825 354.368 347.153 354.048 346.577 353.536C346.001 352.96 345.713 352.416 345.713 351.904ZM363.696 349.504C363.312 349.184 362.96 348.672 362.64 347.968C362.32 347.2 362.16 346.496 362.16 345.856C363.76 343.168 364.912 340.48 365.616 337.792C366.32 335.04 366.672 331.968 366.672 328.576C366.672 326.016 366.48 323.2 366.096 320.128C367.696 320.256 369.264 320.544 370.8 320.992C372.4 321.376 373.808 321.888 375.024 322.528C376.304 323.104 377.36 323.808 378.192 324.64C379.024 325.408 379.536 326.176 379.728 326.944C377.296 337.632 371.952 345.152 363.696 349.504ZM400.338 361.792C400.274 363.008 400.05 364.288 399.666 365.632C399.346 366.912 398.93 368.096 398.418 369.184C397.906 370.208 397.362 371.072 396.786 371.776C396.21 372.48 395.666 372.832 395.154 372.832C394.45 372.768 394.034 372.288 393.906 371.392C393.906 371.2 393.97 370.912 394.098 370.528C394.29 370.08 394.482 369.6 394.674 369.088C394.866 368.576 395.026 368.064 395.154 367.552C395.346 367.04 395.442 366.592 395.442 366.208C395.442 365.312 395.218 364.576 394.77 364C394.386 363.36 393.842 363.04 393.138 363.04C390.578 363.04 388.626 364.64 387.282 367.84C385.938 371.04 385.266 375.744 385.266 381.952C385.266 382.592 385.298 382.976 385.362 383.104C386.706 383.04 387.89 383.008 388.914 383.008C390.002 382.944 391.058 382.912 392.082 382.912C392.146 383.04 392.178 383.296 392.178 383.68C392.178 384.256 392.05 384.672 391.794 384.928C390.322 385.248 389.138 385.536 388.242 385.792C387.41 385.984 386.77 386.176 386.322 386.368C385.874 386.56 385.586 386.784 385.458 387.04C385.394 387.232 385.362 387.52 385.362 387.904C385.362 388.416 385.362 388.928 385.362 389.44C385.426 389.952 385.458 390.592 385.458 391.36C385.458 396.736 383.986 401.056 381.042 404.32C378.162 407.584 374.13 409.472 368.946 409.984C368.05 409.92 367.122 409.664 366.162 409.216C365.202 408.768 364.274 408.192 363.378 407.488C362.546 406.784 361.81 405.984 361.17 405.088C360.53 404.256 360.082 403.392 359.826 402.496C359.826 400.064 360.338 397.76 361.362 395.584C362.386 393.344 363.762 391.392 365.49 389.728C367.282 388 369.362 386.624 371.73 385.6C374.162 384.512 376.786 383.872 379.602 383.68C379.602 382.08 379.442 380.512 379.122 378.976C378.802 377.44 378.45 375.968 378.066 374.56C377.746 373.088 377.426 371.68 377.106 370.336C376.786 368.928 376.626 367.552 376.626 366.208C376.626 364.48 376.978 362.784 377.682 361.12C378.386 359.392 379.314 357.824 380.466 356.416C381.618 354.944 382.962 353.696 384.498 352.672C386.034 351.648 387.634 350.944 389.298 350.56C390.002 350.752 390.93 351.328 392.082 352.288C393.298 353.184 394.482 354.208 395.634 355.36C396.786 356.512 397.81 357.696 398.706 358.912C399.602 360.064 400.146 361.024 400.338 361.792ZM368.658 405.568C370.194 404.928 371.634 404 372.978 402.784C374.386 401.568 375.602 400.192 376.626 398.656C377.65 397.12 378.45 395.488 379.026 393.76C379.666 392.032 379.986 390.336 379.986 388.672C378.706 388.864 377.298 389.472 375.762 390.496C374.226 391.456 372.786 392.64 371.442 394.048C370.098 395.392 368.978 396.8 368.082 398.272C367.186 399.744 366.738 401.024 366.738 402.112C366.738 403.52 367.378 404.672 368.658 405.568ZM489.041 348.256C489.041 351.776 488.145 355.136 486.353 358.336C484.625 361.536 482.257 364.352 479.249 366.784C476.305 369.152 472.817 371.04 468.785 372.448C464.817 373.856 460.593 374.56 456.113 374.56C454.513 374.56 453.233 374.368 452.273 373.984C451.377 373.536 450.353 372.704 449.201 371.488C446.001 378.464 443.377 384.896 441.329 390.784C439.345 396.608 437.777 402.272 436.625 407.776C434.193 407.2 432.209 406.176 430.673 404.704C429.137 403.296 427.729 401.504 426.449 399.328C427.089 398.112 427.857 396.512 428.753 394.528C429.649 392.544 430.737 390.112 432.017 387.232C433.297 384.288 434.769 380.8 436.433 376.768C438.161 372.672 440.177 367.904 442.481 362.464C443.505 359.968 444.401 357.792 445.169 355.936C445.937 354.08 446.609 352.352 447.185 350.752C447.761 349.088 448.273 347.456 448.721 345.856C449.233 344.256 449.745 342.496 450.257 340.576C447.249 341.536 444.465 342.656 441.905 343.936C439.409 345.216 437.329 346.56 435.665 347.968C435.089 347.584 434.481 347.008 433.841 346.24C433.265 345.472 432.721 344.64 432.209 343.744C431.697 342.784 431.249 341.824 430.865 340.864C430.481 339.904 430.257 339.04 430.193 338.272C432.049 336.992 434.353 335.808 437.105 334.72C439.857 333.632 442.801 332.704 445.937 331.936C449.073 331.104 452.305 330.464 455.633 330.016C459.025 329.568 462.257 329.344 465.329 329.344C468.977 329.344 472.273 329.824 475.217 330.784C478.161 331.68 480.657 332.96 482.705 334.624C484.753 336.288 486.321 338.272 487.409 340.576C488.497 342.88 489.041 345.44 489.041 348.256ZM471.953 336.736C469.521 336.736 467.025 336.928 464.465 337.312L465.617 339.04C464.977 339.872 464.177 341.12 463.217 342.784C462.257 344.448 461.201 346.464 460.049 348.832C458.897 351.136 457.617 353.728 456.209 356.608C454.865 359.488 453.425 362.528 451.889 365.728C456.881 365.728 461.425 365.28 465.521 364.384C469.617 363.424 473.105 362.144 475.985 360.544C478.929 358.88 481.201 356.96 482.801 354.784C484.465 352.608 485.297 350.272 485.297 347.776C485.297 344.448 484.177 341.792 481.937 339.808C479.697 337.76 476.369 336.736 471.953 336.736ZM484.033 393.568C484.033 392.992 484.065 392.288 484.129 391.456C484.257 390.56 484.449 389.408 484.705 388C484.961 386.528 485.281 384.768 485.665 382.72C486.113 380.672 486.657 378.208 487.297 375.328C487.425 374.688 487.713 373.664 488.161 372.256C488.609 370.848 489.185 369.376 489.889 367.84C490.657 366.24 491.553 364.704 492.577 363.232C493.665 361.76 494.945 360.672 496.417 359.968C497.505 360.224 498.945 360.896 500.737 361.984C502.529 363.008 504.065 364.448 505.345 366.304C503.873 367.968 502.625 369.632 501.601 371.296C500.641 372.96 499.745 374.688 498.913 376.48C498.145 378.272 497.409 380.128 496.705 382.048C496.065 383.968 495.329 385.984 494.497 388.096C493.793 389.888 493.153 391.744 492.577 393.664C492.001 395.52 491.681 397.152 491.617 398.56C491.617 399.712 491.585 400.512 491.521 400.96C491.521 401.472 491.361 401.728 491.041 401.728C490.785 401.728 490.273 401.568 489.505 401.248C488.737 400.928 487.937 400.448 487.105 399.808C486.337 399.104 485.633 398.24 484.993 397.216C484.353 396.192 484.033 394.976 484.033 393.568ZM502.369 351.904C502.369 351.52 502.465 350.944 502.657 350.176C502.337 349.856 502.049 349.376 501.793 348.736C501.601 348.096 501.505 347.52 501.505 347.008C501.505 346.432 501.569 345.664 501.697 344.704C501.889 343.68 502.113 342.592 502.369 341.44C502.625 340.288 502.945 339.104 503.329 337.888C503.713 336.608 504.097 335.456 504.481 334.432C505.249 334.432 506.177 334.656 507.265 335.104C508.417 335.488 509.569 336.032 510.721 336.736C511.873 337.376 512.929 338.112 513.889 338.944C514.849 339.712 515.585 340.448 516.097 341.152C515.393 341.856 514.465 342.848 513.313 344.128C512.161 345.344 511.041 346.656 509.953 348.064C508.865 349.408 507.873 350.688 506.977 351.904C506.081 353.12 505.505 353.984 505.249 354.496C504.481 354.368 503.809 354.048 503.233 353.536C502.657 352.96 502.369 352.416 502.369 351.904ZM503.169 398.656C503.169 397.632 504.065 396 505.857 393.76C507.649 391.456 510.017 388.864 512.961 385.984C515.969 383.04 519.393 379.968 523.233 376.768C527.137 373.504 531.169 370.368 535.329 367.36C532.641 366.784 530.497 366.368 528.897 366.112C527.361 365.856 526.113 365.728 525.153 365.728C523.297 365.728 521.633 365.984 520.161 366.496C518.689 367.008 517.249 367.84 515.841 368.992C512.897 366.432 511.424 363.488 511.424 360.16C511.424 359.136 511.457 358.528 511.521 358.336C512.609 357.248 513.889 356.416 515.361 355.84C516.897 355.264 518.497 354.976 520.161 354.976C521.953 354.976 523.777 355.264 525.633 355.84C527.489 356.416 529.313 357.056 531.105 357.76C532.897 358.4 534.561 359.008 536.097 359.584C537.697 360.16 539.105 360.448 540.321 360.448C541.025 360.448 541.793 360.352 542.625 360.16C543.521 359.968 544.257 359.712 544.833 359.392C545.409 359.84 545.921 360.736 546.369 362.08C546.881 363.424 547.137 364.736 547.137 366.016C545.153 366.784 542.753 368.128 539.937 370.048C537.185 371.968 534.369 374.176 531.489 376.672C528.609 379.168 525.793 381.824 523.041 384.64C520.353 387.456 518.113 390.112 516.321 392.608C517.665 393.184 519.489 393.472 521.793 393.472C523.265 393.472 524.769 393.344 526.305 393.088C527.841 392.832 529.313 392.48 530.721 392.032C532.193 391.584 533.537 391.072 534.753 390.496C535.969 389.856 536.993 389.184 537.825 388.48C540.833 390.4 542.337 393.216 542.337 396.928C542.337 397.44 542.305 397.856 542.241 398.176C542.241 398.496 542.209 398.88 542.145 399.328C539.201 401.184 536.001 402.112 532.545 402.112C530.817 402.112 529.089 401.92 527.361 401.536C525.633 401.216 523.937 400.864 522.273 400.48C520.673 400.096 519.137 399.744 517.665 399.424C516.257 399.04 514.945 398.848 513.729 398.848C510.657 398.848 508.161 400.288 506.241 403.168C505.409 402.848 504.705 402.272 504.129 401.44C503.617 400.608 503.297 399.68 503.169 398.656ZM548.45 398.656C548.45 397.632 549.346 396 551.138 393.76C552.93 391.456 555.298 388.864 558.242 385.984C561.25 383.04 564.674 379.968 568.514 376.768C572.418 373.504 576.45 370.368 580.61 367.36C577.922 366.784 575.778 366.368 574.178 366.112C572.642 365.856 571.394 365.728 570.434 365.728C568.578 365.728 566.914 365.984 565.442 366.496C563.97 367.008 562.53 367.84 561.122 368.992C558.178 366.432 556.706 363.488 556.706 360.16C556.706 359.136 556.738 358.528 556.802 358.336C557.89 357.248 559.17 356.416 560.642 355.84C562.178 355.264 563.778 354.976 565.442 354.976C567.234 354.976 569.058 355.264 570.914 355.84C572.77 356.416 574.594 357.056 576.386 357.76C578.178 358.4 579.842 359.008 581.378 359.584C582.978 360.16 584.386 360.448 585.602 360.448C586.306 360.448 587.074 360.352 587.906 360.16C588.802 359.968 589.538 359.712 590.114 359.392C590.69 359.84 591.202 360.736 591.65 362.08C592.162 363.424 592.418 364.736 592.418 366.016C590.434 366.784 588.034 368.128 585.218 370.048C582.466 371.968 579.65 374.176 576.77 376.672C573.89 379.168 571.074 381.824 568.322 384.64C565.634 387.456 563.394 390.112 561.602 392.608C562.946 393.184 564.77 393.472 567.074 393.472C568.546 393.472 570.05 393.344 571.586 393.088C573.122 392.832 574.594 392.48 576.002 392.032C577.474 391.584 578.818 391.072 580.034 390.496C581.25 389.856 582.274 389.184 583.106 388.48C586.114 390.4 587.618 393.216 587.618 396.928C587.618 397.44 587.586 397.856 587.522 398.176C587.522 398.496 587.49 398.88 587.426 399.328C584.482 401.184 581.282 402.112 577.826 402.112C576.098 402.112 574.37 401.92 572.642 401.536C570.914 401.216 569.218 400.864 567.554 400.48C565.954 400.096 564.418 399.744 562.946 399.424C561.538 399.04 560.226 398.848 559.01 398.848C555.938 398.848 553.442 400.288 551.522 403.168C550.69 402.848 549.986 402.272 549.41 401.44C548.898 400.608 548.578 399.68 548.45 398.656ZM629.838 361.216C630.478 361.216 631.214 361.344 632.046 361.6C632.942 361.792 633.742 362.08 634.446 362.464C635.15 362.784 635.726 363.136 636.174 363.52C636.686 363.904 636.942 364.256 636.942 364.576C635.662 367.264 634.478 369.984 633.39 372.736C632.302 375.424 631.374 378.016 630.606 380.512C629.838 383.008 629.23 385.344 628.782 387.52C628.398 389.696 628.206 391.584 628.206 393.184C628.206 394.976 628.398 396.48 628.782 397.696C629.166 398.848 629.806 399.68 630.702 400.192C629.934 400.704 628.942 401.12 627.726 401.44C626.51 401.76 625.422 401.92 624.462 401.92C621.006 401.92 619.278 399.552 619.278 394.816C619.278 391.168 620.494 386.176 622.926 379.84C621.646 382.784 620.174 385.568 618.51 388.192C616.846 390.752 615.15 393.024 613.422 395.008C611.694 396.992 609.934 398.624 608.142 399.904C606.414 401.12 604.814 401.856 603.342 402.112C600.974 401.984 599.054 400.864 597.582 398.752C596.11 396.576 595.374 393.824 595.374 390.496C595.374 386.912 596.142 383.136 597.678 379.168C599.214 375.2 601.166 371.52 603.534 368.128C605.966 364.736 608.59 361.92 611.406 359.68C614.222 357.376 616.942 356.16 619.566 356.032C620.206 356.224 620.91 356.608 621.678 357.184C622.51 357.76 623.278 358.432 623.982 359.2C624.75 359.968 625.39 360.768 625.902 361.6C626.414 362.368 626.702 363.04 626.766 363.616C624.206 364 621.55 365.248 618.798 367.36C616.11 369.472 613.646 372.032 611.406 375.04C609.23 377.984 607.438 381.152 606.03 384.544C604.622 387.936 603.918 391.104 603.918 394.048C603.918 395.264 604.366 396.032 605.262 396.352C607.118 395.968 609.262 394.4 611.694 391.648C614.126 388.832 617.07 384.512 620.526 378.688C621.166 377.536 621.87 376.256 622.638 374.848C623.47 373.44 624.302 371.968 625.134 370.432C625.966 368.896 626.766 367.36 627.534 365.824C628.366 364.224 629.134 362.688 629.838 361.216Z" fill="white"/>
</svg>
